<svg id="visual" viewBox="0 0 900 600" width="900" height="600" xmlns="http://www.w3.org/2000/svg" xmlns:xlink="http://www.w3.org/1999/xlink" version="1.1"><rect x="0" y="0" width="900" height="600" fill="#001220"></rect><defs><linearGradient id="grad1_0" x1="33.3%" y1="0%" x2="100%" y2="100%"><stop offset="20%" stop-color="#097b50" stop-opacity="1"></stop><stop offset="80%" stop-color="#097b50" stop-opacity="1"></stop></linearGradient></defs><defs><linearGradient id="grad1_1" x1="33.3%" y1="0%" x2="100%" y2="100%"><stop offset="20%" stop-color="#097b50" stop-opacity="1"></stop><stop offset="80%" stop-color="#006157" stop-opacity="1"></stop></linearGradient></defs><defs><linearGradient id="grad1_2" x1="33.3%" y1="0%" x2="100%" y2="100%"><stop offset="20%" stop-color="#004550" stop-opacity="1"></stop><stop offset="80%" stop-color="#006157" stop-opacity="1"></stop></linearGradient></defs><defs><linearGradient id="grad1_3" x1="33.3%" y1="0%" x2="100%" y2="100%"><stop offset="20%" stop-color="#004550" stop-opacity="1"></stop><stop offset="80%" stop-color="#002b3c" stop-opacity="1"></stop></linearGradient></defs><defs><linearGradient id="grad1_4" x1="33.3%" y1="0%" x2="100%" y2="100%"><stop offset="20%" stop-color="#001220" stop-opacity="1"></stop><stop offset="80%" stop-color="#002b3c" stop-opacity="1"></stop></linearGradient></defs><defs><linearGradient id="grad2_0" x1="0%" y1="0%" x2="66.7%" y2="100%"><stop offset="20%" stop-color="#097b50" stop-opacity="1"></stop><stop offset="80%" stop-color="#097b50" stop-opacity="1"></stop></linearGradient></defs><defs><linearGradient id="grad2_1" x1="0%" y1="0%" x2="66.7%" y2="100%"><stop offset="20%" stop-color="#006157" stop-opacity="1"></stop><stop offset="80%" stop-color="#097b50" stop-opacity="1"></stop></linearGradient></defs><defs><linearGradient id="grad2_2" x1="0%" y1="0%" x2="66.7%" y2="100%"><stop offset="20%" stop-color="#006157" stop-opacity="1"></stop><stop offset="80%" stop-color="#004550" stop-opacity="1"></stop></linearGradient></defs><defs><linearGradient id="grad2_3" x1="0%" y1="0%" x2="66.7%" y2="100%"><stop offset="20%" stop-color="#002b3c" stop-opacity="1"></stop><stop offset="80%" stop-color="#004550" stop-opacity="1"></stop></linearGradient></defs><defs><linearGradient id="grad2_4" x1="0%" y1="0%" x2="66.7%" y2="100%"><stop offset="20%" stop-color="#002b3c" stop-opacity="1"></stop><stop offset="80%" stop-color="#001220" stop-opacity="1"></stop></linearGradient></defs><g transform="translate(900, 0)"><path d="M0 486.7C-71.2 485.1 -142.3 483.5 -184.1 444.4C-225.8 405.2 -238.1 328.5 -284.3 284.3C-330.4 240 -410.3 228.2 -449.7 186.3C-489.1 144.3 -487.9 72.2 -486.7 0L0 0Z" fill="#001e2f"></path><path d="M0 389.4C-56.9 388.1 -113.9 386.8 -147.3 355.5C-180.6 324.2 -190.5 262.8 -227.4 227.4C-264.3 192 -328.3 182.6 -359.8 149C-391.3 115.4 -390.3 57.7 -389.4 0L0 0Z" fill="#003847"></path><path d="M0 292C-42.7 291.1 -85.4 290.1 -110.4 266.6C-135.5 243.1 -142.9 197.1 -170.6 170.6C-198.2 144 -246.2 136.9 -269.8 111.8C-293.4 86.6 -292.7 43.3 -292 0L0 0Z" fill="#005355"></path><path d="M0 194.7C-28.5 194.1 -56.9 193.4 -73.6 177.8C-90.3 162.1 -95.3 131.4 -113.7 113.7C-132.2 96 -164.1 91.3 -179.9 74.5C-195.6 57.7 -195.2 28.9 -194.7 0L0 0Z" fill="#006e55"></path><path d="M0 97.3C-14.2 97 -28.5 96.7 -36.8 88.9C-45.2 81 -47.6 65.7 -56.9 56.9C-66.1 48 -82.1 45.6 -89.9 37.3C-97.8 28.9 -97.6 14.4 -97.3 0L0 0Z" fill="#097b50"></path></g><g transform="translate(0, 600)"><path d="M0 -486.7C66.8 -482.7 133.7 -478.6 186.3 -449.7C238.9 -420.8 277.2 -366.9 320.3 -320.3C363.4 -273.7 411.2 -234.3 439.8 -182.2C468.3 -130 477.5 -65 486.7 0L0 0Z" fill="#001e2f"></path><path d="M0 -389.4C53.5 -386.2 106.9 -382.9 149 -359.8C191.1 -336.6 221.8 -293.5 256.3 -256.3C290.7 -219 329 -187.5 351.8 -145.7C374.6 -104 382 -52 389.4 0L0 0Z" fill="#003847"></path><path d="M0 -292C40.1 -289.6 80.2 -287.2 111.8 -269.8C143.3 -252.5 166.3 -220.2 192.2 -192.2C218 -164.2 246.7 -140.6 263.9 -109.3C281 -78 286.5 -39 292 0L0 0Z" fill="#005355"></path><path d="M0 -194.7C26.7 -193.1 53.5 -191.5 74.5 -179.9C95.5 -168.3 110.9 -146.8 128.1 -128.1C145.4 -109.5 164.5 -93.7 175.9 -72.9C187.3 -52 191 -26 194.7 0L0 0Z" fill="#006e55"></path><path d="M0 -97.3C13.4 -96.5 26.7 -95.7 37.3 -89.9C47.8 -84.2 55.4 -73.4 64.1 -64.1C72.7 -54.7 82.2 -46.9 88 -36.4C93.7 -26 95.5 -13 97.3 0L0 0Z" fill="#097b50"></path></g></svg>