<svg id="visual" viewBox="0 0 900 600" width="900" height="600" xmlns="http://www.w3.org/2000/svg" xmlns:xlink="http://www.w3.org/1999/xlink" version="1.1"><rect x="0" y="0" width="900" height="600" fill="#001220"></rect><defs><linearGradient id="grad1_0" x1="33.3%" y1="0%" x2="100%" y2="100%"><stop offset="20%" stop-color="#097b50" stop-opacity="1"></stop><stop offset="80%" stop-color="#097b50" stop-opacity="1"></stop></linearGradient></defs><defs><linearGradient id="grad1_1" x1="33.3%" y1="0%" x2="100%" y2="100%"><stop offset="20%" stop-color="#097b50" stop-opacity="1"></stop><stop offset="80%" stop-color="#006157" stop-opacity="1"></stop></linearGradient></defs><defs><linearGradient id="grad1_2" x1="33.3%" y1="0%" x2="100%" y2="100%"><stop offset="20%" stop-color="#004550" stop-opacity="1"></stop><stop offset="80%" stop-color="#006157" stop-opacity="1"></stop></linearGradient></defs><defs><linearGradient id="grad1_3" x1="33.3%" y1="0%" x2="100%" y2="100%"><stop offset="20%" stop-color="#004550" stop-opacity="1"></stop><stop offset="80%" stop-color="#002b3c" stop-opacity="1"></stop></linearGradient></defs><defs><linearGradient id="grad1_4" x1="33.3%" y1="0%" x2="100%" y2="100%"><stop offset="20%" stop-color="#001220" stop-opacity="1"></stop><stop offset="80%" stop-color="#002b3c" stop-opacity="1"></stop></linearGradient></defs><defs><linearGradient id="grad2_0" x1="0%" y1="0%" x2="66.7%" y2="100%"><stop offset="20%" stop-color="#097b50" stop-opacity="1"></stop><stop offset="80%" stop-color="#097b50" stop-opacity="1"></stop></linearGradient></defs><defs><linearGradient id="grad2_1" x1="0%" y1="0%" x2="66.7%" y2="100%"><stop offset="20%" stop-color="#006157" stop-opacity="1"></stop><stop offset="80%" stop-color="#097b50" stop-opacity="1"></stop></linearGradient></defs><defs><linearGradient id="grad2_2" x1="0%" y1="0%" x2="66.7%" y2="100%"><stop offset="20%" stop-color="#006157" stop-opacity="1"></stop><stop offset="80%" stop-color="#004550" stop-opacity="1"></stop></linearGradient></defs><defs><linearGradient id="grad2_3" x1="0%" y1="0%" x2="66.7%" y2="100%"><stop offset="20%" stop-color="#002b3c" stop-opacity="1"></stop><stop offset="80%" stop-color="#004550" stop-opacity="1"></stop></linearGradient></defs><defs><linearGradient id="grad2_4" x1="0%" y1="0%" x2="66.7%" y2="100%"><stop offset="20%" stop-color="#002b3c" stop-opacity="1"></stop><stop offset="80%" stop-color="#001220" stop-opacity="1"></stop></linearGradient></defs><g transform="translate(900, 0)"><path d="M0 405.6C-35.1 375.7 -70.2 345.7 -108.5 333.8C-146.7 322 -188.2 328.2 -230.4 317.1C-272.6 306.1 -315.5 277.7 -328.2 238.4C-340.8 199.2 -323.1 149.1 -331 107.5C-338.8 66 -372.2 33 -405.6 0L0 0Z" fill="#001e2f"></path><path d="M0 324.5C-28.1 300.5 -56.1 276.5 -86.8 267.1C-117.4 257.6 -150.6 262.6 -184.3 253.7C-218.1 244.8 -252.4 222.1 -262.5 190.7C-272.6 159.3 -258.5 119.3 -264.8 86C-271.1 52.8 -297.8 26.4 -324.5 0L0 0Z" fill="#003847"></path><path d="M0 243.4C-21.1 225.4 -42.1 207.4 -65.1 200.3C-88 193.2 -112.9 196.9 -138.2 190.3C-163.6 183.6 -189.3 166.6 -196.9 143.1C-204.5 119.5 -193.9 89.4 -198.6 64.5C-203.3 39.6 -223.3 19.8 -243.4 0L0 0Z" fill="#005355"></path><path d="M0 162.2C-14 150.3 -28.1 138.3 -43.4 133.5C-58.7 128.8 -75.3 131.3 -92.2 126.9C-109 122.4 -126.2 111.1 -131.3 95.4C-136.3 79.7 -129.2 59.6 -132.4 43C-135.5 26.4 -148.9 13.2 -162.2 0L0 0Z" fill="#006e55"></path><path d="M0 81.1C-7 75.1 -14 69.1 -21.7 66.8C-29.3 64.4 -37.6 65.6 -46.1 63.4C-54.5 61.2 -63.1 55.5 -65.6 47.7C-68.2 39.8 -64.6 29.8 -66.2 21.5C-67.8 13.2 -74.4 6.6 -81.1 0L0 0Z" fill="#097b50"></path></g><g transform="translate(0, 600)"><path d="M0 -405.6C34 -374.4 68 -343.2 108.2 -332.9C148.3 -322.6 194.5 -333.1 233.4 -321.2C272.2 -309.2 303.8 -274.7 328.2 -238.4C352.5 -202.1 369.7 -164 381.4 -123.9C393.1 -83.9 399.4 -41.9 405.6 0L0 0Z" fill="#001e2f"></path><path d="M0 -324.5C27.2 -299.5 54.4 -274.6 86.5 -266.3C118.6 -258 155.6 -266.5 186.7 -256.9C217.8 -247.4 243 -219.8 262.5 -190.7C282 -161.7 295.7 -131.2 305.1 -99.1C314.5 -67.1 319.5 -33.5 324.5 0L0 0Z" fill="#003847"></path><path d="M0 -243.4C20.4 -224.6 40.8 -205.9 64.9 -199.7C89 -193.5 116.7 -199.9 140 -192.7C163.3 -185.5 182.3 -164.8 196.9 -143.1C211.5 -121.3 221.8 -98.4 228.8 -74.3C235.9 -50.3 239.6 -25.2 243.4 0L0 0Z" fill="#005355"></path><path d="M0 -162.2C13.6 -149.8 27.2 -137.3 43.3 -133.1C59.3 -129 77.8 -133.3 93.3 -128.5C108.9 -123.7 121.5 -109.9 131.3 -95.4C141 -80.8 147.9 -65.6 152.5 -49.6C157.2 -33.5 159.7 -16.8 162.2 0L0 0Z" fill="#006e55"></path><path d="M0 -81.1C6.8 -74.9 13.6 -68.6 21.6 -66.6C29.7 -64.5 38.9 -66.6 46.7 -64.2C54.4 -61.8 60.8 -54.9 65.6 -47.7C70.5 -40.4 73.9 -32.8 76.3 -24.8C78.6 -16.8 79.9 -8.4 81.1 0L0 0Z" fill="#097b50"></path></g></svg>