<svg id="visual" viewBox="0 0 1920 1080" width="1920" height="1080" xmlns="http://www.w3.org/2000/svg" xmlns:xlink="http://www.w3.org/1999/xlink" version="1.1"><rect x="0" y="0" width="1920" height="1080" fill="#FFFFFF"></rect><path d="M0 691L29.2 691.3C58.3 691.7 116.7 692.3 174.8 700.3C233 708.3 291 723.7 349.2 726.2C407.3 728.7 465.7 718.3 523.8 718.3C582 718.3 640 728.7 698.2 732.2C756.3 735.7 814.7 732.3 872.8 730C931 727.7 989 726.3 1047.2 720.2C1105.3 714 1163.7 703 1221.8 700C1280 697 1338 702 1396.2 702C1454.3 702 1512.7 697 1570.8 702C1629 707 1687 722 1745.2 729.7C1803.3 737.3 1861.7 737.7 1890.8 737.8L1920 738L1920 1081L1890.8 1081C1861.7 1081 1803.3 1081 1745.2 1081C1687 1081 1629 1081 1570.8 1081C1512.7 1081 1454.3 1081 1396.2 1081C1338 1081 1280 1081 1221.8 1081C1163.7 1081 1105.3 1081 1047.2 1081C989 1081 931 1081 872.8 1081C814.7 1081 756.3 1081 698.2 1081C640 1081 582 1081 523.8 1081C465.7 1081 407.3 1081 349.2 1081C291 1081 233 1081 174.8 1081C116.7 1081 58.3 1081 29.2 1081L0 1081Z" fill="#3fada9"></path><path d="M0 762L29.2 757C58.3 752 116.7 742 174.8 745.5C233 749 291 766 349.2 768.5C407.3 771 465.7 759 523.8 755C582 751 640 755 698.2 761.5C756.3 768 814.7 777 872.8 781.3C931 785.7 989 785.3 1047.2 782.7C1105.3 780 1163.7 775 1221.8 766.2C1280 757.3 1338 744.7 1396.2 737.5C1454.3 730.3 1512.7 728.7 1570.8 732.5C1629 736.3 1687 745.7 1745.2 752C1803.3 758.3 1861.7 761.7 1890.8 763.3L1920 765L1920 1081L1890.8 1081C1861.7 1081 1803.3 1081 1745.2 1081C1687 1081 1629 1081 1570.8 1081C1512.7 1081 1454.3 1081 1396.2 1081C1338 1081 1280 1081 1221.8 1081C1163.7 1081 1105.3 1081 1047.2 1081C989 1081 931 1081 872.8 1081C814.7 1081 756.3 1081 698.2 1081C640 1081 582 1081 523.8 1081C465.7 1081 407.3 1081 349.2 1081C291 1081 233 1081 174.8 1081C116.7 1081 58.3 1081 29.2 1081L0 1081Z" fill="#33a69d"></path><path d="M0 807L29.2 808.7C58.3 810.3 116.7 813.7 174.8 812.2C233 810.7 291 804.3 349.2 798.8C407.3 793.3 465.7 788.7 523.8 785.7C582 782.7 640 781.3 698.2 785.2C756.3 789 814.7 798 872.8 799.2C931 800.3 989 793.7 1047.2 795C1105.3 796.3 1163.7 805.7 1221.8 811C1280 816.3 1338 817.7 1396.2 814.5C1454.3 811.3 1512.7 803.7 1570.8 803.7C1629 803.7 1687 811.3 1745.2 813.3C1803.3 815.3 1861.7 811.7 1890.8 809.8L1920 808L1920 1081L1890.8 1081C1861.7 1081 1803.3 1081 1745.2 1081C1687 1081 1629 1081 1570.8 1081C1512.7 1081 1454.3 1081 1396.2 1081C1338 1081 1280 1081 1221.8 1081C1163.7 1081 1105.3 1081 1047.2 1081C989 1081 931 1081 872.8 1081C814.7 1081 756.3 1081 698.2 1081C640 1081 582 1081 523.8 1081C465.7 1081 407.3 1081 349.2 1081C291 1081 233 1081 174.8 1081C116.7 1081 58.3 1081 29.2 1081L0 1081Z" fill="#289f91"></path><path d="M0 857L29.2 858.8C58.3 860.7 116.7 864.3 174.8 867.5C233 870.7 291 873.3 349.2 874.8C407.3 876.3 465.7 876.7 523.8 876C582 875.3 640 873.7 698.2 864.5C756.3 855.3 814.7 838.7 872.8 836.3C931 834 989 846 1047.2 852.2C1105.3 858.3 1163.7 858.7 1221.8 860.8C1280 863 1338 867 1396.2 864C1454.3 861 1512.7 851 1570.8 847.5C1629 844 1687 847 1745.2 846.8C1803.3 846.7 1861.7 843.3 1890.8 841.7L1920 840L1920 1081L1890.8 1081C1861.7 1081 1803.3 1081 1745.2 1081C1687 1081 1629 1081 1570.8 1081C1512.7 1081 1454.3 1081 1396.2 1081C1338 1081 1280 1081 1221.8 1081C1163.7 1081 1105.3 1081 1047.2 1081C989 1081 931 1081 872.8 1081C814.7 1081 756.3 1081 698.2 1081C640 1081 582 1081 523.8 1081C465.7 1081 407.3 1081 349.2 1081C291 1081 233 1081 174.8 1081C116.7 1081 58.3 1081 29.2 1081L0 1081Z" fill="#1e9884"></path><path d="M0 899L29.2 902C58.3 905 116.7 911 174.8 908.7C233 906.3 291 895.7 349.2 891.5C407.3 887.3 465.7 889.7 523.8 891.3C582 893 640 894 698.2 894.5C756.3 895 814.7 895 872.8 896C931 897 989 899 1047.2 903C1105.3 907 1163.7 913 1221.8 909.5C1280 906 1338 893 1396.2 892.5C1454.3 892 1512.7 904 1570.8 903.2C1629 902.3 1687 888.7 1745.2 881.8C1803.3 875 1861.7 875 1890.8 875L1920 875L1920 1081L1890.8 1081C1861.7 1081 1803.3 1081 1745.2 1081C1687 1081 1629 1081 1570.8 1081C1512.7 1081 1454.3 1081 1396.2 1081C1338 1081 1280 1081 1221.8 1081C1163.7 1081 1105.3 1081 1047.2 1081C989 1081 931 1081 872.8 1081C814.7 1081 756.3 1081 698.2 1081C640 1081 582 1081 523.8 1081C465.7 1081 407.3 1081 349.2 1081C291 1081 233 1081 174.8 1081C116.7 1081 58.3 1081 29.2 1081L0 1081Z" fill="#149078"></path><path d="M0 960L29.2 952.8C58.3 945.7 116.7 931.3 174.8 927.7C233 924 291 931 349.2 937.3C407.3 943.7 465.7 949.3 523.8 953.5C582 957.7 640 960.3 698.2 962.2C756.3 964 814.7 965 872.8 959.8C931 954.7 989 943.3 1047.2 938.2C1105.3 933 1163.7 934 1221.8 933C1280 932 1338 929 1396.2 928.8C1454.3 928.7 1512.7 931.3 1570.8 935.5C1629 939.7 1687 945.3 1745.2 949.5C1803.3 953.7 1861.7 956.3 1890.8 957.7L1920 959L1920 1081L1890.8 1081C1861.7 1081 1803.3 1081 1745.2 1081C1687 1081 1629 1081 1570.8 1081C1512.7 1081 1454.3 1081 1396.2 1081C1338 1081 1280 1081 1221.8 1081C1163.7 1081 1105.3 1081 1047.2 1081C989 1081 931 1081 872.8 1081C814.7 1081 756.3 1081 698.2 1081C640 1081 582 1081 523.8 1081C465.7 1081 407.3 1081 349.2 1081C291 1081 233 1081 174.8 1081C116.7 1081 58.3 1081 29.2 1081L0 1081Z" fill="#0d896b"></path><path d="M0 1005L29.2 998.5C58.3 992 116.7 979 174.8 972.8C233 966.7 291 967.3 349.2 967.3C407.3 967.3 465.7 966.7 523.8 972.5C582 978.3 640 990.7 698.2 996C756.3 1001.3 814.7 999.7 872.8 994.2C931 988.7 989 979.3 1047.2 976.3C1105.3 973.3 1163.7 976.7 1221.8 981.7C1280 986.7 1338 993.3 1396.2 993.8C1454.3 994.3 1512.7 988.7 1570.8 987.3C1629 986 1687 989 1745.2 986.7C1803.3 984.3 1861.7 976.7 1890.8 972.8L1920 969L1920 1081L1890.8 1081C1861.7 1081 1803.3 1081 1745.2 1081C1687 1081 1629 1081 1570.8 1081C1512.7 1081 1454.3 1081 1396.2 1081C1338 1081 1280 1081 1221.8 1081C1163.7 1081 1105.3 1081 1047.2 1081C989 1081 931 1081 872.8 1081C814.7 1081 756.3 1081 698.2 1081C640 1081 582 1081 523.8 1081C465.7 1081 407.3 1081 349.2 1081C291 1081 233 1081 174.8 1081C116.7 1081 58.3 1081 29.2 1081L0 1081Z" fill="#09825d"></path><path d="M0 1047L29.2 1046.7C58.3 1046.3 116.7 1045.7 174.8 1042C233 1038.3 291 1031.7 349.2 1030C407.3 1028.3 465.7 1031.7 523.8 1036.2C582 1040.7 640 1046.3 698.2 1043.3C756.3 1040.3 814.7 1028.7 872.8 1022C931 1015.3 989 1013.7 1047.2 1017.7C1105.3 1021.7 1163.7 1031.3 1221.8 1036C1280 1040.7 1338 1040.3 1396.2 1039.7C1454.3 1039 1512.7 1038 1570.8 1038.2C1629 1038.3 1687 1039.7 1745.2 1040.5C1803.3 1041.3 1861.7 1041.7 1890.8 1041.8L1920 1042L1920 1081L1890.8 1081C1861.7 1081 1803.3 1081 1745.2 1081C1687 1081 1629 1081 1570.8 1081C1512.7 1081 1454.3 1081 1396.2 1081C1338 1081 1280 1081 1221.8 1081C1163.7 1081 1105.3 1081 1047.2 1081C989 1081 931 1081 872.8 1081C814.7 1081 756.3 1081 698.2 1081C640 1081 582 1081 523.8 1081C465.7 1081 407.3 1081 349.2 1081C291 1081 233 1081 174.8 1081C116.7 1081 58.3 1081 29.2 1081L0 1081Z" fill="#097b50"></path></svg>